<svg width="42" height="44" viewBox="0 0 42 44" fill="none" xmlns="http://www.w3.org/2000/svg">
<rect x="21" y="24" width="20" height="20" rx="10" fill="#85DAA7"/>
<path d="M26.5 32L31.5 37L40.5 26" stroke="#1F1F1F" stroke-width="1.5"/>
<path fill-rule="evenodd" clip-rule="evenodd" d="M0.25 4C0.25 1.92893 1.92893 0.25 4 0.25H35C37.0711 0.25 38.75 1.92893 38.75 4V23L37.25 22V4C37.25 2.75736 36.2426 1.75 35 1.75H4C2.75736 1.75 1.75 2.75736 1.75 4V36C1.75 37.2426 2.75736 38.25 4 38.25H17.5L18.5 39.75H4C1.92893 39.75 0.25 38.0711 0.25 36V4ZM8.75 12C8.75 11.5858 9.08579 11.25 9.5 11.25H30C30.4142 11.25 30.75 11.5858 30.75 12C30.75 12.4142 30.4142 12.75 30 12.75H9.5C9.08579 12.75 8.75 12.4142 8.75 12ZM8.75 19C8.75 18.5858 9.08579 18.25 9.5 18.25H21.5C21.9142 18.25 22.25 18.5858 22.25 19C22.25 19.4142 21.9142 19.75 21.5 19.75H9.5C9.08579 19.75 8.75 19.4142 8.75 19ZM8.75 26C8.75 25.5858 9.08579 25.25 9.5 25.25H21.5C21.9142 25.25 22.25 25.5858 22.25 26C22.25 26.4142 21.9142 26.75 21.5 26.75H9.5C9.08579 26.75 8.75 26.4142 8.75 26Z" fill="#1F1F1F"/>
</svg>
