<?xml version="1.0" encoding="utf-8"?>
<!-- Generator: Adobe Illustrator 26.5.0, SVG Export Plug-In . SVG Version: 6.00 Build 0)  -->
<svg version="1.1" id="Layer_1" xmlns="http://www.w3.org/2000/svg" xmlns:xlink="http://www.w3.org/1999/xlink" x="0px" y="0px"
	 viewBox="0 0 46 41" style="enable-background:new 0 0 46 41;" xml:space="preserve">
<style type="text/css">
	.st0{fill:#00BEFC;}
	.st1{fill:none;filter:url(#Adobe_OpacityMaskFilter);}
	.st2{mask:url(#mask0_1812_5323_00000023962944754298121430000005235180964510580671_);}
	.st3{fill:#FFFFFF;}
</style>
<g>
	<path d="M19.4,41l-1-0.3c-3.3-0.9-8.6-3.9-13.3-8.3c-3.1-3-4.9-6.8-4.9-10.5V21C0.2,13.4,6.4,7.3,14,7.3h12
		c7.6,0,13.7,6.2,13.7,13.7v0.9c0,7.6-6.2,13.7-13.7,13.7h-6.7V41z M14,8.8C7.2,8.8,1.8,14.2,1.8,21v0.9c0,4.7,3.1,8.1,4.4,9.4
		c4,3.8,8.6,6.5,11.7,7.6v-4.8H26c6.7,0,12.2-5.5,12.2-12.2V21c0-6.7-5.5-12.2-12.2-12.2H14z"/>
</g>
<g>
	<path d="M12,22c0,1.1-0.9,2-2,2c-1.1,0-2-0.9-2-2s0.9-2,2-2C11.1,20,12,20.9,12,22z"/>
</g>
<g>
	<path d="M22,22c0,1.1-0.9,2-2,2s-2-0.9-2-2s0.9-2,2-2S22,20.9,22,22z"/>
</g>
<g>
	<path d="M32,22c0,1.1-0.9,2-2,2s-2-0.9-2-2s0.9-2,2-2S32,20.9,32,22z"/>
</g>
<g>
	<path class="st0" d="M36,0L36,0c5.5,0,10,4.5,10,10l0,0c0,5.5-4.5,10-10,10l0,0c-5.5,0-10-4.5-10-10l0,0C26,4.5,30.5,0,36,0z"/>
</g>
<defs>
	<filter id="Adobe_OpacityMaskFilter" filterUnits="userSpaceOnUse" x="31" y="5.4" width="9.6" height="11.9">
		<feColorMatrix  type="matrix" values="1 0 0 0 0  0 1 0 0 0  0 0 1 0 0  0 0 0 1 0"/>
	</filter>
</defs>
<mask maskUnits="userSpaceOnUse" x="31" y="5.4" width="9.6" height="11.9" id="mask0_1812_5323_00000023962944754298121430000005235180964510580671_">
	<path class="st1" d="M35.5,3h2c4.1,0,7.5,3.4,7.5,7.5l0,0c0,4.1-3.4,7.5-7.5,7.5h-2c-4.1,0-7.5-3.4-7.5-7.5l0,0
		C28,6.4,31.4,3,35.5,3z"/>
</mask>
<g class="st2">
	<g>
		<path class="st3" d="M31,5.4h9.6l-1.7,11L31,17.2V5.4z"/>
	</g>
</g>
<g>
	<path class="st3" d="M31,9.2c-0.1,0-0.1-0.1-0.1-0.1c0-0.6,0.3-1.1,0.9-1.6c0.6-0.5,1.3-0.8,2.1-0.8c1.2,0,1.8,0.7,1.8,2.2
		c0,0.4,0,0.7-0.1,1.1l-0.1,0.7l-0.1,0.8c-0.1,0.7-0.1,1.3-0.1,1.7c0,0.4,0.1,0.6,0.4,0.6c0.2,0,0.5-0.2,0.9-0.6
		c0.3-0.4,0.7-0.9,1-1.5c0.3-0.6,0.5-1.3,0.5-1.9c0-0.7-0.3-1.4-1-2.3c0.2-0.3,0.4-0.7,0.6-0.9C37.8,6.3,38,6.1,38.2,6l0.3-0.2
		c0.3,0,0.6,0.2,0.8,0.6c0.2,0.4,0.3,0.9,0.3,1.4c0,0.9-0.3,1.9-0.8,3.1c-0.5,1.2-1.2,2.2-1.9,3c-0.8,0.9-1.5,1.3-2.2,1.3
		c-0.4,0-0.8-0.2-1-0.5c-0.2-0.3-0.4-0.7-0.4-1.1c0-0.4,0.1-1.1,0.2-2.1l0.1-0.8c0.1-0.9,0.2-1.6,0.2-2c0-0.4,0-0.7-0.1-0.9
		c-0.1-0.2-0.3-0.3-0.5-0.3c-0.3,0-0.6,0.2-0.9,0.5c-0.3,0.3-0.5,0.6-0.5,1c0,0.1-0.1,0.1-0.1,0.1L31,9.2z"/>
</g>
</svg>
