<svg width="16" height="20" viewBox="0 0 16 20" fill="none" xmlns="http://www.w3.org/2000/svg">
<rect x="0.5" y="3.5" width="15" height="15" rx="7.5" stroke="#00BEFC"/>
<path d="M11.064 12.944L11.424 13.16C11.24 13.528 11.024 13.78 10.776 13.916C10.528 14.052 10.252 14.12 9.948 14.12C9.484 14.12 9.116 13.976 8.844 13.688C8.58 13.392 8.496 12.936 8.592 12.32L8.952 10.04C9 9.736 9.012 9.492 8.988 9.308C8.972 9.124 8.916 8.992 8.82 8.912C8.732 8.824 8.6 8.78 8.424 8.78C8.28 8.78 8.128 8.824 7.968 8.912C7.816 8.992 7.668 9.12 7.524 9.296C7.388 9.464 7.264 9.68 7.152 9.944C7.04 10.208 6.96 10.52 6.912 10.88L6.48 14H4.848L5.568 8.78L5.448 8.66H4.848L4.908 8.24C5.22 8.24 5.572 8.236 5.964 8.228C6.356 8.22 6.712 8.204 7.032 8.18L7.152 8.3L7.044 9.092H7.164C7.388 8.78 7.66 8.54 7.98 8.372C8.3 8.204 8.668 8.12 9.084 8.12C9.708 8.12 10.136 8.296 10.368 8.648C10.6 8.992 10.672 9.456 10.584 10.04L10.164 12.752C10.124 13.032 10.132 13.22 10.188 13.316C10.252 13.412 10.336 13.46 10.44 13.46C10.56 13.46 10.668 13.412 10.764 13.316C10.868 13.22 10.968 13.096 11.064 12.944Z" fill="#00BEFC"/>
</svg>
