<svg width="15" height="13" viewBox="0 0 15 13" fill="none" xmlns="http://www.w3.org/2000/svg">
<path d="M5.34136 11.2003L5.10955 10.487L5.34137 11.2003C5.51974 11.1423 5.68592 11.052 5.83161 10.9339L5.3593 10.3513L5.83162 10.9339L13.2666 4.9062C13.9601 4.34396 14.0263 3.30959 13.4102 2.6635L12.7724 1.99473L12.7724 1.99473C12.2285 1.42446 11.3403 1.36098 10.7209 1.84812L11.1846 2.43765L10.7209 1.84812L3.21031 7.7548C3.03463 7.89296 2.89137 8.06797 2.79064 8.26749L1.38462 11.0524C1.06403 11.6873 1.66953 12.3936 2.34603 12.1737L5.34136 11.2003ZM1.8824 10.7472C1.88259 10.7471 1.88278 10.7471 1.88298 10.747L1.8824 10.7472Z" stroke="white" stroke-width="1.5"/>
</svg>
