<svg width="38" height="36" viewBox="0 0 38 36" fill="none" xmlns="http://www.w3.org/2000/svg">
<path fill-rule="evenodd" clip-rule="evenodd" d="M37.4999 35.25H17.4999V33.75H37.4999V35.25Z" fill="black"/>
<path fill-rule="evenodd" clip-rule="evenodd" d="M13.6206 29.2248L28.9957 11.4752C30.9845 9.17925 30.7355 5.70576 28.4396 3.71694C26.1436 1.72812 22.6701 1.97711 20.6813 4.27306L5.3062 22.0226C3.29561 24.3437 1.1984 29.7659 3.05213 32.2677C3.11726 32.3556 3.17739 32.4372 3.23061 32.5101C3.31038 32.5524 3.39974 32.6003 3.49604 32.6522C6.23669 34.1302 11.61 31.5458 13.6206 29.2248ZM3.56897 34.3443C6.75289 35.6533 12.4611 32.8543 14.7544 30.2069L30.1295 12.4573C32.6607 9.53519 32.3438 5.11438 29.4217 2.58316C26.4996 0.0519351 22.0788 0.368825 19.5475 3.29095L4.17242 21.0405C1.8791 23.688 -0.38276 29.4722 1.36694 32.4369C1.3693 32.4408 1.37166 32.4448 1.37402 32.4488C1.5181 32.692 1.67573 32.9297 1.84691 33.1607C2.06017 33.4485 2.19714 33.6386 2.21796 33.6792C2.20837 33.6759 2.2069 33.6772 2.21419 33.6835C2.22148 33.6898 2.22259 33.6882 2.21796 33.6792C2.26112 33.694 2.46877 33.8025 2.78407 33.9725C3.03714 34.109 3.29484 34.2311 3.55609 34.339C3.56038 34.3408 3.56468 34.3425 3.56897 34.3443Z" fill="#1F1F1F"/>
<path fill-rule="evenodd" clip-rule="evenodd" d="M18.8808 6.35166L27.951 14.2085L26.9689 15.3423L17.8987 7.48544L18.8808 6.35166Z" fill="black"/>
</svg>
