<svg width="16" height="16" viewBox="0 0 16 16" fill="none" xmlns="http://www.w3.org/2000/svg">
<circle cx="8" cy="8" r="8" fill="#D7D8DC"/>
<path d="M7.14757 9.6736V9.80728H8.75174V9.6736C8.75781 8.8229 9.06163 8.42794 9.74826 8.02082C10.5443 7.54079 11.0608 6.90884 11.0608 5.90624C11.0608 4.40537 9.86372 3.52429 8.1684 3.52429C6.61285 3.52429 5.34288 4.3446 5.3125 6.05207H7.03819C7.0625 5.34113 7.59115 4.9644 8.15625 4.95832C8.74566 4.9644 9.21962 5.35936 9.21354 5.967C9.21962 6.52603 8.8125 6.90276 8.28993 7.24304C7.56076 7.69877 7.15365 8.16058 7.14757 9.6736ZM6.96528 11.533C6.95313 12.0981 7.41493 12.5538 7.98611 12.5538C8.52691 12.5538 8.99479 12.0981 8.99479 11.533C8.99479 10.9739 8.52691 10.5182 7.98611 10.5243C7.41493 10.5182 6.95313 10.9739 6.96528 11.533Z" fill="white"/>
</svg>
