<svg width="22" height="22" viewBox="0 0 22 22" fill="none" xmlns="http://www.w3.org/2000/svg">
<path fill-rule="evenodd" clip-rule="evenodd" d="M14.0416 15.5727C12.6759 16.6161 10.9692 17.2358 9.1179 17.2358C4.63451 17.2358 1 13.6013 1 9.1179C1 4.63451 4.63451 1 9.1179 1C13.6013 1 17.2358 4.63451 17.2358 9.1179C17.2358 10.9695 16.6159 12.6763 15.5723 14.0421L20.7703 19.24C21.0766 19.5463 21.0766 20.0428 20.7703 20.349L20.3486 20.7708C20.0423 21.077 19.5458 21.077 19.2396 20.7708L14.0416 15.5727ZM15.071 9.1179C15.071 12.4057 12.4057 15.071 9.1179 15.071C5.83008 15.071 3.16477 12.4057 3.16477 9.1179C3.16477 5.83008 5.83008 3.16477 9.1179 3.16477C12.4057 3.16477 15.071 5.83008 15.071 9.1179Z" fill="#00BEFC" stroke="#00BEFC" stroke-width="0.5"/>
</svg>
