<svg width="21" height="21" viewBox="0 0 21 21" fill="none" xmlns="http://www.w3.org/2000/svg">
<path fill-rule="evenodd" clip-rule="evenodd" d="M7.63636 9.54545C9.74509 9.54545 11.4545 7.836 11.4545 5.72727C11.4545 3.61855 9.74509 1.90909 7.63636 1.90909C5.52764 1.90909 3.81818 3.61855 3.81818 5.72727C3.81818 7.836 5.52764 9.54545 7.63636 9.54545ZM7.63636 11.4545C10.7994 11.4545 13.3636 8.89036 13.3636 5.72727C13.3636 2.56419 10.7994 0 7.63636 0C4.47328 0 1.90909 2.56419 1.90909 5.72727C1.90909 8.89036 4.47328 11.4545 7.63636 11.4545Z" fill="#00BEFC"/>
<path fill-rule="evenodd" clip-rule="evenodd" d="M17.1818 6.68182C17.1818 5.62746 16.3271 4.77273 15.2727 4.77273V2.86364C17.3815 2.86364 19.0909 4.57309 19.0909 6.68182C19.0909 8.79054 17.3815 10.5 15.2727 10.5V8.59091C16.3271 8.59091 17.1818 7.73618 17.1818 6.68182Z" fill="#00BEFC"/>
<path fill-rule="evenodd" clip-rule="evenodd" d="M13.357 17.1355C13.3141 16.945 13.0444 16.3111 11.9705 15.5887C10.8947 14.865 9.35488 14.3182 7.63636 14.3182C5.91785 14.3182 4.37805 14.865 3.3022 15.5887C2.22828 16.3111 1.95863 16.945 1.91577 17.1355C2.01899 17.2335 2.28429 17.4113 2.83051 17.59C3.92586 17.9486 5.59666 18.1364 7.63636 18.1364C9.67606 18.1364 11.3469 17.9486 12.4422 17.59C12.9884 17.4113 13.2537 17.2335 13.357 17.1355ZM7.63636 20.0455C11.8538 20.0455 15.2727 19.2905 15.2727 17.1818C15.2727 15.0731 11.8538 12.4091 7.63636 12.4091C3.41892 12.4091 0 15.0731 0 17.1818C0 19.2905 3.41892 20.0455 7.63636 20.0455Z" fill="#00BEFC"/>
<path fill-rule="evenodd" clip-rule="evenodd" d="M18.1148 14.1984C17.4041 13.7203 16.3956 13.3636 15.2727 13.3636V11.4545C16.7858 11.4545 18.1636 11.9304 19.1803 12.6143C20.139 13.2592 21 14.2552 21 15.392C21 16.3552 20.3871 16.9944 19.7024 17.3674C19.0397 17.7284 18.1826 17.9247 17.2936 18.0295L17.07 16.1336C17.8667 16.0396 18.4414 15.8804 18.7891 15.6909C19.0986 15.5224 19.0924 15.4182 19.091 15.395L19.0909 15.392C19.0909 15.2109 18.8835 14.7154 18.1148 14.1984Z" fill="#00BEFC"/>
</svg>
